G04 (created by PCBNEW-RS274X (2011-01-25 BZR 2758)-stable) date 2011-04-14T22:21:49 CEST*
G01*
G70*
G90*
%MOIN*%
G04 Gerber Fmt 3.4, Leading zero omitted, Abs format*
%FSLAX34Y34*%
G04 APERTURE LIST*
%ADD10C,0.006000*%
%ADD11C,0.015000*%
%ADD12R,0.060000X0.060000*%
%ADD13C,0.060000*%
%ADD14C,0.106300*%
%ADD15C,0.063000*%
%ADD16O,0.063000X0.118100*%
%ADD17O,0.118100X0.063000*%
%ADD18C,0.236200*%
%ADD19C,0.031500*%
%ADD20C,0.039400*%
%ADD21C,0.009800*%
%ADD22C,0.015700*%
%ADD23C,0.010000*%
G04 APERTURE END LIST*
G54D10*
G54D11*
X04232Y-02657D02*
X21161Y-02657D01*
X02854Y-20964D02*
X02854Y-04035D01*
X21063Y-22342D02*
X04232Y-22342D01*
X21063Y-22341D02*
X21182Y-22344D01*
X21302Y-22337D01*
X21422Y-22320D01*
X21539Y-22292D01*
X21653Y-22254D01*
X21764Y-22206D01*
X21870Y-22148D01*
X21970Y-22082D01*
X22065Y-22007D01*
X22152Y-21925D01*
X22232Y-21834D01*
X22304Y-21738D01*
X22367Y-21635D01*
X22421Y-21527D01*
X22465Y-21415D01*
X22500Y-21300D01*
X22524Y-21182D01*
X22538Y-21062D01*
X22539Y-04035D02*
X22539Y-21063D01*
X22539Y-04035D02*
X22533Y-03915D01*
X22518Y-03796D01*
X22492Y-03679D01*
X22455Y-03564D01*
X22409Y-03453D01*
X22354Y-03347D01*
X22289Y-03245D01*
X22216Y-03150D01*
X22135Y-03061D01*
X22046Y-02980D01*
X21951Y-02907D01*
X21850Y-02842D01*
X21743Y-02787D01*
X21632Y-02741D01*
X21517Y-02704D01*
X21400Y-02678D01*
X21281Y-02663D01*
X21161Y-02657D01*
X04232Y-02657D02*
X04112Y-02663D01*
X03993Y-02678D01*
X03876Y-02704D01*
X03761Y-02741D01*
X03650Y-02787D01*
X03544Y-02842D01*
X03442Y-02907D01*
X03347Y-02980D01*
X03258Y-03061D01*
X03177Y-03150D01*
X03104Y-03245D01*
X03039Y-03347D01*
X02984Y-03453D01*
X02938Y-03564D01*
X02901Y-03679D01*
X02875Y-03796D01*
X02860Y-03915D01*
X02854Y-04035D01*
X02854Y-20964D02*
X02860Y-21084D01*
X02875Y-21203D01*
X02901Y-21320D01*
X02938Y-21435D01*
X02984Y-21546D01*
X03039Y-21652D01*
X03104Y-21754D01*
X03177Y-21849D01*
X03258Y-21938D01*
X03347Y-22019D01*
X03442Y-22092D01*
X03544Y-22157D01*
X03650Y-22212D01*
X03761Y-22258D01*
X03876Y-22295D01*
X03993Y-22321D01*
X04112Y-22336D01*
X04232Y-22342D01*
G54D12*
X20267Y-11023D03*
G54D13*
X21267Y-11023D03*
G54D12*
X20267Y-07267D03*
G54D13*
X21267Y-07267D03*
X20267Y-08267D03*
X21267Y-08267D03*
X20267Y-09267D03*
X21267Y-09267D03*
X06279Y-09653D03*
X06279Y-08653D03*
X05492Y-08653D03*
X05492Y-09653D03*
G54D14*
X04429Y-11515D03*
X04429Y-06791D03*
G54D15*
X22145Y-18012D03*
X21161Y-18012D03*
X22145Y-14074D03*
X21161Y-14074D03*
X19192Y-16043D03*
G54D16*
X21161Y-16043D03*
G54D17*
X19192Y-18012D03*
X19192Y-14074D03*
G54D18*
X04232Y-04035D03*
X21161Y-04035D03*
X04232Y-20964D03*
X21161Y-20964D03*
G54D19*
X12401Y-07933D03*
X13071Y-08602D03*
G54D20*
X07677Y-08858D03*
X07677Y-08070D03*
X07578Y-07381D03*
X05610Y-15452D03*
X08267Y-16633D03*
X05610Y-16830D03*
X03838Y-15944D03*
X14370Y-15944D03*
X10827Y-17027D03*
X13779Y-21063D03*
X11614Y-21063D03*
X12204Y-08956D03*
X17815Y-08366D03*
X15453Y-06397D03*
X17913Y-12106D03*
X18208Y-10236D03*
X09941Y-06397D03*
X07500Y-12106D03*
X07500Y-10531D03*
X10138Y-09153D03*
X13484Y-09291D03*
X13484Y-09803D03*
X13484Y-10334D03*
X11909Y-10334D03*
G54D21*
X12402Y-07933D02*
X12401Y-07933D01*
X13071Y-08602D02*
X12402Y-07933D01*
G54D22*
X07677Y-08858D02*
X07677Y-08070D01*
X07185Y-06692D02*
X07185Y-07774D01*
X07480Y-06397D02*
X07185Y-06692D01*
X09941Y-06397D02*
X07480Y-06397D01*
X07382Y-09744D02*
X07500Y-09744D01*
X07185Y-09547D02*
X07382Y-09744D01*
X07185Y-07774D02*
X07185Y-09547D01*
X07578Y-07381D02*
X07185Y-07774D01*
X05610Y-15944D02*
X05610Y-15452D01*
X10827Y-17027D02*
X09350Y-17027D01*
X07578Y-16633D02*
X06889Y-15944D01*
X08956Y-16633D02*
X08267Y-16633D01*
X08267Y-16633D02*
X07578Y-16633D01*
X09350Y-17027D02*
X08956Y-16633D01*
X15453Y-06397D02*
X09941Y-06397D01*
X05610Y-16830D02*
X05610Y-15944D01*
X06889Y-15944D02*
X06890Y-15944D01*
X06890Y-15944D02*
X07500Y-15334D01*
X07500Y-15334D02*
X07500Y-12106D01*
X18208Y-11811D02*
X18209Y-11811D01*
X21267Y-11508D02*
X21267Y-11023D01*
X20669Y-12106D02*
X21267Y-11508D01*
X18504Y-12106D02*
X20669Y-12106D01*
X18209Y-11811D02*
X18504Y-12106D01*
X05118Y-15944D02*
X05610Y-15944D01*
X05610Y-15944D02*
X06889Y-15944D01*
X05118Y-15944D02*
X03838Y-15944D01*
X14370Y-15944D02*
X11319Y-15944D01*
X11319Y-15944D02*
X10827Y-16436D01*
X10827Y-16436D02*
X10827Y-17027D01*
X10827Y-21063D02*
X11614Y-21063D01*
X10827Y-17027D02*
X10827Y-21063D01*
X13779Y-21063D02*
X17421Y-21063D01*
X20374Y-16830D02*
X21161Y-16043D01*
X20374Y-18110D02*
X20374Y-16830D01*
X17421Y-21063D02*
X20374Y-18110D01*
X11614Y-21063D02*
X13779Y-21063D01*
X12204Y-08956D02*
X12992Y-09744D01*
X17815Y-08366D02*
X18011Y-08366D01*
X18208Y-08563D02*
X18208Y-10236D01*
X18011Y-08366D02*
X18208Y-08563D01*
X17520Y-06397D02*
X17519Y-06397D01*
X17519Y-06397D02*
X15453Y-06397D01*
X17815Y-06692D02*
X17520Y-06397D01*
X17815Y-08366D02*
X17815Y-06692D01*
X18208Y-11811D02*
X18208Y-10236D01*
X17913Y-12106D02*
X18208Y-11811D01*
X07500Y-12106D02*
X07500Y-10531D01*
X07500Y-10531D02*
X07500Y-09744D01*
X10138Y-09153D02*
X10138Y-09744D01*
X07500Y-09744D02*
X08956Y-09744D01*
X10039Y-09744D02*
X10138Y-09744D01*
X08956Y-09744D02*
X10039Y-09744D01*
X12992Y-09744D02*
X12992Y-09783D01*
X10138Y-09744D02*
X10630Y-09744D01*
X10630Y-09744D02*
X12697Y-09744D01*
X12697Y-09744D02*
X12893Y-09744D01*
X12893Y-09744D02*
X12992Y-09744D01*
X12992Y-09783D02*
X12992Y-10334D01*
X13484Y-09291D02*
X12992Y-09783D01*
X12953Y-10334D02*
X12992Y-10334D01*
X13484Y-09803D02*
X12953Y-10334D01*
X11909Y-10334D02*
X12992Y-10334D01*
X12992Y-10334D02*
X13484Y-10334D01*
G54D10*
G36*
X22214Y-19993D02*
X21973Y-19752D01*
X21447Y-19534D01*
X20878Y-19533D01*
X20352Y-19750D01*
X20037Y-20064D01*
X20037Y-18122D01*
X20037Y-17902D01*
X20037Y-14184D01*
X20037Y-13964D01*
X19953Y-13760D01*
X19797Y-13604D01*
X19593Y-13520D01*
X19373Y-13520D01*
X18791Y-13520D01*
X18587Y-13604D01*
X18431Y-13760D01*
X18347Y-13964D01*
X18347Y-14184D01*
X18431Y-14388D01*
X18587Y-14544D01*
X18791Y-14628D01*
X19011Y-14628D01*
X19593Y-14628D01*
X19797Y-14544D01*
X19953Y-14388D01*
X20037Y-14184D01*
X20037Y-17902D01*
X19953Y-17698D01*
X19797Y-17542D01*
X19757Y-17525D01*
X19757Y-16156D01*
X19757Y-15931D01*
X19671Y-15723D01*
X19512Y-15564D01*
X19305Y-15478D01*
X19080Y-15478D01*
X18872Y-15564D01*
X18713Y-15723D01*
X18627Y-15930D01*
X18627Y-16155D01*
X18713Y-16363D01*
X18872Y-16522D01*
X19079Y-16608D01*
X19304Y-16608D01*
X19512Y-16522D01*
X19671Y-16363D01*
X19757Y-16156D01*
X19757Y-17525D01*
X19593Y-17458D01*
X19373Y-17458D01*
X18791Y-17458D01*
X18587Y-17542D01*
X18431Y-17698D01*
X18347Y-17902D01*
X18347Y-18122D01*
X18431Y-18326D01*
X18587Y-18482D01*
X18791Y-18566D01*
X19011Y-18566D01*
X19593Y-18566D01*
X19797Y-18482D01*
X19953Y-18326D01*
X20037Y-18122D01*
X20037Y-20064D01*
X19949Y-20152D01*
X19731Y-20678D01*
X19730Y-21247D01*
X19947Y-21773D01*
X20190Y-22017D01*
X13477Y-22017D01*
X13477Y-08683D01*
X13477Y-08522D01*
X13415Y-08373D01*
X13302Y-08258D01*
X13152Y-08196D01*
X13087Y-08196D01*
X12807Y-07915D01*
X12807Y-07853D01*
X12745Y-07704D01*
X12632Y-07589D01*
X12482Y-07527D01*
X12321Y-07527D01*
X12172Y-07589D01*
X12057Y-07702D01*
X11995Y-07852D01*
X11995Y-08013D01*
X12057Y-08162D01*
X12170Y-08277D01*
X12320Y-08339D01*
X12385Y-08339D01*
X12665Y-08618D01*
X12665Y-08682D01*
X12727Y-08831D01*
X12840Y-08946D01*
X12990Y-09008D01*
X13151Y-09008D01*
X13300Y-08946D01*
X13415Y-08833D01*
X13477Y-08683D01*
X13477Y-22017D01*
X08123Y-22017D01*
X08123Y-08947D01*
X08123Y-08770D01*
X08055Y-08606D01*
X08005Y-08555D01*
X08005Y-08372D01*
X08055Y-08323D01*
X08123Y-08159D01*
X08123Y-07982D01*
X08055Y-07818D01*
X07930Y-07692D01*
X07766Y-07624D01*
X07589Y-07624D01*
X07425Y-07692D01*
X07299Y-07817D01*
X07231Y-07981D01*
X07231Y-08158D01*
X07299Y-08322D01*
X07349Y-08372D01*
X07349Y-08555D01*
X07299Y-08605D01*
X07231Y-08769D01*
X07231Y-08946D01*
X07299Y-09110D01*
X07424Y-09236D01*
X07588Y-09304D01*
X07765Y-09304D01*
X07929Y-09236D01*
X08055Y-09111D01*
X08123Y-08947D01*
X08123Y-22017D01*
X06828Y-22017D01*
X06828Y-09762D01*
X06828Y-09544D01*
X06744Y-09342D01*
X06590Y-09188D01*
X06505Y-09153D01*
X06590Y-09118D01*
X06744Y-08964D01*
X06828Y-08762D01*
X06828Y-08544D01*
X06744Y-08342D01*
X06590Y-08188D01*
X06388Y-08104D01*
X06170Y-08104D01*
X05968Y-08188D01*
X05885Y-08270D01*
X05803Y-08188D01*
X05601Y-08104D01*
X05383Y-08104D01*
X05210Y-08175D01*
X05210Y-06947D01*
X05210Y-06636D01*
X05091Y-06349D01*
X04872Y-06129D01*
X04585Y-06010D01*
X04274Y-06010D01*
X03987Y-06129D01*
X03767Y-06348D01*
X03648Y-06635D01*
X03648Y-06946D01*
X03767Y-07233D01*
X03986Y-07453D01*
X04273Y-07572D01*
X04584Y-07572D01*
X04871Y-07453D01*
X05091Y-07234D01*
X05210Y-06947D01*
X05210Y-08175D01*
X05181Y-08188D01*
X05027Y-08342D01*
X04943Y-08544D01*
X04943Y-08762D01*
X05027Y-08964D01*
X05181Y-09118D01*
X05265Y-09153D01*
X05181Y-09188D01*
X05027Y-09342D01*
X04943Y-09544D01*
X04943Y-09762D01*
X05027Y-09964D01*
X05181Y-10118D01*
X05383Y-10202D01*
X05601Y-10202D01*
X05803Y-10118D01*
X05885Y-10035D01*
X05968Y-10118D01*
X06170Y-10202D01*
X06388Y-10202D01*
X06590Y-10118D01*
X06744Y-09964D01*
X06828Y-09762D01*
X06828Y-22017D01*
X05202Y-22017D01*
X05444Y-21776D01*
X05662Y-21250D01*
X05663Y-20681D01*
X05446Y-20155D01*
X05210Y-19918D01*
X05210Y-11671D01*
X05210Y-11360D01*
X05091Y-11073D01*
X04872Y-10853D01*
X04585Y-10734D01*
X04274Y-10734D01*
X03987Y-10853D01*
X03767Y-11072D01*
X03648Y-11359D01*
X03648Y-11670D01*
X03767Y-11957D01*
X03986Y-12177D01*
X04273Y-12296D01*
X04584Y-12296D01*
X04871Y-12177D01*
X05091Y-11958D01*
X05210Y-11671D01*
X05210Y-19918D01*
X05044Y-19752D01*
X04518Y-19534D01*
X03949Y-19533D01*
X03423Y-19750D01*
X03179Y-19993D01*
X03179Y-05005D01*
X03420Y-05247D01*
X03946Y-05465D01*
X04515Y-05466D01*
X05041Y-05249D01*
X05444Y-04847D01*
X05662Y-04321D01*
X05663Y-03752D01*
X05446Y-03226D01*
X05202Y-02982D01*
X20190Y-02982D01*
X19949Y-03223D01*
X19731Y-03749D01*
X19730Y-04318D01*
X19947Y-04844D01*
X20349Y-05247D01*
X20875Y-05465D01*
X21444Y-05466D01*
X21970Y-05249D01*
X22214Y-05005D01*
X22214Y-13509D01*
X22033Y-13509D01*
X21825Y-13595D01*
X21816Y-13604D01*
X21816Y-09376D01*
X21816Y-09158D01*
X21732Y-08956D01*
X21578Y-08802D01*
X21493Y-08767D01*
X21578Y-08732D01*
X21732Y-08578D01*
X21816Y-08376D01*
X21816Y-08158D01*
X21732Y-07956D01*
X21578Y-07802D01*
X21493Y-07767D01*
X21578Y-07732D01*
X21732Y-07578D01*
X21816Y-07376D01*
X21816Y-07158D01*
X21732Y-06956D01*
X21578Y-06802D01*
X21376Y-06718D01*
X21158Y-06718D01*
X20956Y-06802D01*
X20816Y-06942D01*
X20816Y-06918D01*
X20778Y-06826D01*
X20708Y-06756D01*
X20617Y-06718D01*
X20518Y-06718D01*
X19918Y-06718D01*
X19826Y-06756D01*
X19756Y-06826D01*
X19718Y-06917D01*
X19718Y-07016D01*
X19718Y-07616D01*
X19756Y-07708D01*
X19826Y-07778D01*
X19917Y-07816D01*
X19942Y-07816D01*
X19802Y-07956D01*
X19718Y-08158D01*
X19718Y-08376D01*
X19802Y-08578D01*
X19956Y-08732D01*
X20040Y-08767D01*
X19956Y-08802D01*
X19802Y-08956D01*
X19718Y-09158D01*
X19718Y-09376D01*
X19802Y-09578D01*
X19956Y-09732D01*
X20158Y-09816D01*
X20376Y-09816D01*
X20578Y-09732D01*
X20732Y-09578D01*
X20767Y-09493D01*
X20802Y-09578D01*
X20956Y-09732D01*
X21158Y-09816D01*
X21376Y-09816D01*
X21578Y-09732D01*
X21732Y-09578D01*
X21816Y-09376D01*
X21816Y-13604D01*
X21810Y-13610D01*
X21810Y-11102D01*
X21799Y-10889D01*
X21739Y-10742D01*
X21645Y-10715D01*
X21575Y-10785D01*
X21575Y-10645D01*
X21548Y-10551D01*
X21346Y-10480D01*
X21133Y-10491D01*
X20986Y-10551D01*
X20959Y-10645D01*
X21267Y-10952D01*
X21575Y-10645D01*
X21575Y-10785D01*
X21338Y-11023D01*
X21645Y-11331D01*
X21739Y-11304D01*
X21810Y-11102D01*
X21810Y-13610D01*
X21666Y-13754D01*
X21652Y-13785D01*
X21640Y-13754D01*
X21575Y-13689D01*
X21575Y-11401D01*
X21267Y-11094D01*
X21196Y-11164D01*
X21196Y-11023D01*
X20889Y-10715D01*
X20816Y-10735D01*
X20816Y-10674D01*
X20778Y-10582D01*
X20708Y-10512D01*
X20617Y-10474D01*
X20518Y-10474D01*
X19918Y-10474D01*
X19826Y-10512D01*
X19756Y-10582D01*
X19718Y-10673D01*
X19718Y-10772D01*
X19718Y-11372D01*
X19756Y-11464D01*
X19826Y-11534D01*
X19917Y-11572D01*
X20016Y-11572D01*
X20616Y-11572D01*
X20708Y-11534D01*
X20778Y-11464D01*
X20816Y-11373D01*
X20816Y-11310D01*
X20889Y-11331D01*
X21196Y-11023D01*
X21196Y-11164D01*
X20959Y-11401D01*
X20986Y-11495D01*
X21188Y-11566D01*
X21401Y-11555D01*
X21548Y-11495D01*
X21575Y-11401D01*
X21575Y-13689D01*
X21481Y-13595D01*
X21274Y-13509D01*
X21049Y-13509D01*
X20841Y-13595D01*
X20682Y-13754D01*
X20596Y-13961D01*
X20596Y-14186D01*
X20682Y-14394D01*
X20841Y-14553D01*
X21048Y-14639D01*
X21273Y-14639D01*
X21481Y-14553D01*
X21640Y-14394D01*
X21653Y-14362D01*
X21666Y-14394D01*
X21825Y-14553D01*
X22032Y-14639D01*
X22214Y-14639D01*
X22214Y-17447D01*
X22033Y-17447D01*
X21825Y-17533D01*
X21726Y-17632D01*
X21726Y-16405D01*
X21726Y-16093D01*
X21726Y-15993D01*
X21726Y-15681D01*
X21650Y-15471D01*
X21499Y-15306D01*
X21298Y-15221D01*
X21211Y-15268D01*
X21211Y-15993D01*
X21726Y-15993D01*
X21726Y-16093D01*
X21211Y-16093D01*
X21211Y-16818D01*
X21298Y-16865D01*
X21499Y-16780D01*
X21650Y-16615D01*
X21726Y-16405D01*
X21726Y-17632D01*
X21666Y-17692D01*
X21652Y-17723D01*
X21640Y-17692D01*
X21481Y-17533D01*
X21274Y-17447D01*
X21111Y-17447D01*
X21111Y-16818D01*
X21111Y-16093D01*
X21111Y-15993D01*
X21111Y-15268D01*
X21024Y-15221D01*
X20823Y-15306D01*
X20672Y-15471D01*
X20596Y-15681D01*
X20596Y-15993D01*
X21111Y-15993D01*
X21111Y-16093D01*
X20596Y-16093D01*
X20596Y-16405D01*
X20672Y-16615D01*
X20823Y-16780D01*
X21024Y-16865D01*
X21111Y-16818D01*
X21111Y-17447D01*
X21049Y-17447D01*
X20841Y-17533D01*
X20682Y-17692D01*
X20596Y-17899D01*
X20596Y-18124D01*
X20682Y-18332D01*
X20841Y-18491D01*
X21048Y-18577D01*
X21273Y-18577D01*
X21481Y-18491D01*
X21640Y-18332D01*
X21653Y-18300D01*
X21666Y-18332D01*
X21825Y-18491D01*
X22032Y-18577D01*
X22214Y-18577D01*
X22214Y-19993D01*
X22214Y-19993D01*
G37*
G54D23*
X22214Y-19993D02*
X21973Y-19752D01*
X21447Y-19534D01*
X20878Y-19533D01*
X20352Y-19750D01*
X20037Y-20064D01*
X20037Y-18122D01*
X20037Y-17902D01*
X20037Y-14184D01*
X20037Y-13964D01*
X19953Y-13760D01*
X19797Y-13604D01*
X19593Y-13520D01*
X19373Y-13520D01*
X18791Y-13520D01*
X18587Y-13604D01*
X18431Y-13760D01*
X18347Y-13964D01*
X18347Y-14184D01*
X18431Y-14388D01*
X18587Y-14544D01*
X18791Y-14628D01*
X19011Y-14628D01*
X19593Y-14628D01*
X19797Y-14544D01*
X19953Y-14388D01*
X20037Y-14184D01*
X20037Y-17902D01*
X19953Y-17698D01*
X19797Y-17542D01*
X19757Y-17525D01*
X19757Y-16156D01*
X19757Y-15931D01*
X19671Y-15723D01*
X19512Y-15564D01*
X19305Y-15478D01*
X19080Y-15478D01*
X18872Y-15564D01*
X18713Y-15723D01*
X18627Y-15930D01*
X18627Y-16155D01*
X18713Y-16363D01*
X18872Y-16522D01*
X19079Y-16608D01*
X19304Y-16608D01*
X19512Y-16522D01*
X19671Y-16363D01*
X19757Y-16156D01*
X19757Y-17525D01*
X19593Y-17458D01*
X19373Y-17458D01*
X18791Y-17458D01*
X18587Y-17542D01*
X18431Y-17698D01*
X18347Y-17902D01*
X18347Y-18122D01*
X18431Y-18326D01*
X18587Y-18482D01*
X18791Y-18566D01*
X19011Y-18566D01*
X19593Y-18566D01*
X19797Y-18482D01*
X19953Y-18326D01*
X20037Y-18122D01*
X20037Y-20064D01*
X19949Y-20152D01*
X19731Y-20678D01*
X19730Y-21247D01*
X19947Y-21773D01*
X20190Y-22017D01*
X13477Y-22017D01*
X13477Y-08683D01*
X13477Y-08522D01*
X13415Y-08373D01*
X13302Y-08258D01*
X13152Y-08196D01*
X13087Y-08196D01*
X12807Y-07915D01*
X12807Y-07853D01*
X12745Y-07704D01*
X12632Y-07589D01*
X12482Y-07527D01*
X12321Y-07527D01*
X12172Y-07589D01*
X12057Y-07702D01*
X11995Y-07852D01*
X11995Y-08013D01*
X12057Y-08162D01*
X12170Y-08277D01*
X12320Y-08339D01*
X12385Y-08339D01*
X12665Y-08618D01*
X12665Y-08682D01*
X12727Y-08831D01*
X12840Y-08946D01*
X12990Y-09008D01*
X13151Y-09008D01*
X13300Y-08946D01*
X13415Y-08833D01*
X13477Y-08683D01*
X13477Y-22017D01*
X08123Y-22017D01*
X08123Y-08947D01*
X08123Y-08770D01*
X08055Y-08606D01*
X08005Y-08555D01*
X08005Y-08372D01*
X08055Y-08323D01*
X08123Y-08159D01*
X08123Y-07982D01*
X08055Y-07818D01*
X07930Y-07692D01*
X07766Y-07624D01*
X07589Y-07624D01*
X07425Y-07692D01*
X07299Y-07817D01*
X07231Y-07981D01*
X07231Y-08158D01*
X07299Y-08322D01*
X07349Y-08372D01*
X07349Y-08555D01*
X07299Y-08605D01*
X07231Y-08769D01*
X07231Y-08946D01*
X07299Y-09110D01*
X07424Y-09236D01*
X07588Y-09304D01*
X07765Y-09304D01*
X07929Y-09236D01*
X08055Y-09111D01*
X08123Y-08947D01*
X08123Y-22017D01*
X06828Y-22017D01*
X06828Y-09762D01*
X06828Y-09544D01*
X06744Y-09342D01*
X06590Y-09188D01*
X06505Y-09153D01*
X06590Y-09118D01*
X06744Y-08964D01*
X06828Y-08762D01*
X06828Y-08544D01*
X06744Y-08342D01*
X06590Y-08188D01*
X06388Y-08104D01*
X06170Y-08104D01*
X05968Y-08188D01*
X05885Y-08270D01*
X05803Y-08188D01*
X05601Y-08104D01*
X05383Y-08104D01*
X05210Y-08175D01*
X05210Y-06947D01*
X05210Y-06636D01*
X05091Y-06349D01*
X04872Y-06129D01*
X04585Y-06010D01*
X04274Y-06010D01*
X03987Y-06129D01*
X03767Y-06348D01*
X03648Y-06635D01*
X03648Y-06946D01*
X03767Y-07233D01*
X03986Y-07453D01*
X04273Y-07572D01*
X04584Y-07572D01*
X04871Y-07453D01*
X05091Y-07234D01*
X05210Y-06947D01*
X05210Y-08175D01*
X05181Y-08188D01*
X05027Y-08342D01*
X04943Y-08544D01*
X04943Y-08762D01*
X05027Y-08964D01*
X05181Y-09118D01*
X05265Y-09153D01*
X05181Y-09188D01*
X05027Y-09342D01*
X04943Y-09544D01*
X04943Y-09762D01*
X05027Y-09964D01*
X05181Y-10118D01*
X05383Y-10202D01*
X05601Y-10202D01*
X05803Y-10118D01*
X05885Y-10035D01*
X05968Y-10118D01*
X06170Y-10202D01*
X06388Y-10202D01*
X06590Y-10118D01*
X06744Y-09964D01*
X06828Y-09762D01*
X06828Y-22017D01*
X05202Y-22017D01*
X05444Y-21776D01*
X05662Y-21250D01*
X05663Y-20681D01*
X05446Y-20155D01*
X05210Y-19918D01*
X05210Y-11671D01*
X05210Y-11360D01*
X05091Y-11073D01*
X04872Y-10853D01*
X04585Y-10734D01*
X04274Y-10734D01*
X03987Y-10853D01*
X03767Y-11072D01*
X03648Y-11359D01*
X03648Y-11670D01*
X03767Y-11957D01*
X03986Y-12177D01*
X04273Y-12296D01*
X04584Y-12296D01*
X04871Y-12177D01*
X05091Y-11958D01*
X05210Y-11671D01*
X05210Y-19918D01*
X05044Y-19752D01*
X04518Y-19534D01*
X03949Y-19533D01*
X03423Y-19750D01*
X03179Y-19993D01*
X03179Y-05005D01*
X03420Y-05247D01*
X03946Y-05465D01*
X04515Y-05466D01*
X05041Y-05249D01*
X05444Y-04847D01*
X05662Y-04321D01*
X05663Y-03752D01*
X05446Y-03226D01*
X05202Y-02982D01*
X20190Y-02982D01*
X19949Y-03223D01*
X19731Y-03749D01*
X19730Y-04318D01*
X19947Y-04844D01*
X20349Y-05247D01*
X20875Y-05465D01*
X21444Y-05466D01*
X21970Y-05249D01*
X22214Y-05005D01*
X22214Y-13509D01*
X22033Y-13509D01*
X21825Y-13595D01*
X21816Y-13604D01*
X21816Y-09376D01*
X21816Y-09158D01*
X21732Y-08956D01*
X21578Y-08802D01*
X21493Y-08767D01*
X21578Y-08732D01*
X21732Y-08578D01*
X21816Y-08376D01*
X21816Y-08158D01*
X21732Y-07956D01*
X21578Y-07802D01*
X21493Y-07767D01*
X21578Y-07732D01*
X21732Y-07578D01*
X21816Y-07376D01*
X21816Y-07158D01*
X21732Y-06956D01*
X21578Y-06802D01*
X21376Y-06718D01*
X21158Y-06718D01*
X20956Y-06802D01*
X20816Y-06942D01*
X20816Y-06918D01*
X20778Y-06826D01*
X20708Y-06756D01*
X20617Y-06718D01*
X20518Y-06718D01*
X19918Y-06718D01*
X19826Y-06756D01*
X19756Y-06826D01*
X19718Y-06917D01*
X19718Y-07016D01*
X19718Y-07616D01*
X19756Y-07708D01*
X19826Y-07778D01*
X19917Y-07816D01*
X19942Y-07816D01*
X19802Y-07956D01*
X19718Y-08158D01*
X19718Y-08376D01*
X19802Y-08578D01*
X19956Y-08732D01*
X20040Y-08767D01*
X19956Y-08802D01*
X19802Y-08956D01*
X19718Y-09158D01*
X19718Y-09376D01*
X19802Y-09578D01*
X19956Y-09732D01*
X20158Y-09816D01*
X20376Y-09816D01*
X20578Y-09732D01*
X20732Y-09578D01*
X20767Y-09493D01*
X20802Y-09578D01*
X20956Y-09732D01*
X21158Y-09816D01*
X21376Y-09816D01*
X21578Y-09732D01*
X21732Y-09578D01*
X21816Y-09376D01*
X21816Y-13604D01*
X21810Y-13610D01*
X21810Y-11102D01*
X21799Y-10889D01*
X21739Y-10742D01*
X21645Y-10715D01*
X21575Y-10785D01*
X21575Y-10645D01*
X21548Y-10551D01*
X21346Y-10480D01*
X21133Y-10491D01*
X20986Y-10551D01*
X20959Y-10645D01*
X21267Y-10952D01*
X21575Y-10645D01*
X21575Y-10785D01*
X21338Y-11023D01*
X21645Y-11331D01*
X21739Y-11304D01*
X21810Y-11102D01*
X21810Y-13610D01*
X21666Y-13754D01*
X21652Y-13785D01*
X21640Y-13754D01*
X21575Y-13689D01*
X21575Y-11401D01*
X21267Y-11094D01*
X21196Y-11164D01*
X21196Y-11023D01*
X20889Y-10715D01*
X20816Y-10735D01*
X20816Y-10674D01*
X20778Y-10582D01*
X20708Y-10512D01*
X20617Y-10474D01*
X20518Y-10474D01*
X19918Y-10474D01*
X19826Y-10512D01*
X19756Y-10582D01*
X19718Y-10673D01*
X19718Y-10772D01*
X19718Y-11372D01*
X19756Y-11464D01*
X19826Y-11534D01*
X19917Y-11572D01*
X20016Y-11572D01*
X20616Y-11572D01*
X20708Y-11534D01*
X20778Y-11464D01*
X20816Y-11373D01*
X20816Y-11310D01*
X20889Y-11331D01*
X21196Y-11023D01*
X21196Y-11164D01*
X20959Y-11401D01*
X20986Y-11495D01*
X21188Y-11566D01*
X21401Y-11555D01*
X21548Y-11495D01*
X21575Y-11401D01*
X21575Y-13689D01*
X21481Y-13595D01*
X21274Y-13509D01*
X21049Y-13509D01*
X20841Y-13595D01*
X20682Y-13754D01*
X20596Y-13961D01*
X20596Y-14186D01*
X20682Y-14394D01*
X20841Y-14553D01*
X21048Y-14639D01*
X21273Y-14639D01*
X21481Y-14553D01*
X21640Y-14394D01*
X21653Y-14362D01*
X21666Y-14394D01*
X21825Y-14553D01*
X22032Y-14639D01*
X22214Y-14639D01*
X22214Y-17447D01*
X22033Y-17447D01*
X21825Y-17533D01*
X21726Y-17632D01*
X21726Y-16405D01*
X21726Y-16093D01*
X21726Y-15993D01*
X21726Y-15681D01*
X21650Y-15471D01*
X21499Y-15306D01*
X21298Y-15221D01*
X21211Y-15268D01*
X21211Y-15993D01*
X21726Y-15993D01*
X21726Y-16093D01*
X21211Y-16093D01*
X21211Y-16818D01*
X21298Y-16865D01*
X21499Y-16780D01*
X21650Y-16615D01*
X21726Y-16405D01*
X21726Y-17632D01*
X21666Y-17692D01*
X21652Y-17723D01*
X21640Y-17692D01*
X21481Y-17533D01*
X21274Y-17447D01*
X21111Y-17447D01*
X21111Y-16818D01*
X21111Y-16093D01*
X21111Y-15993D01*
X21111Y-15268D01*
X21024Y-15221D01*
X20823Y-15306D01*
X20672Y-15471D01*
X20596Y-15681D01*
X20596Y-15993D01*
X21111Y-15993D01*
X21111Y-16093D01*
X20596Y-16093D01*
X20596Y-16405D01*
X20672Y-16615D01*
X20823Y-16780D01*
X21024Y-16865D01*
X21111Y-16818D01*
X21111Y-17447D01*
X21049Y-17447D01*
X20841Y-17533D01*
X20682Y-17692D01*
X20596Y-17899D01*
X20596Y-18124D01*
X20682Y-18332D01*
X20841Y-18491D01*
X21048Y-18577D01*
X21273Y-18577D01*
X21481Y-18491D01*
X21640Y-18332D01*
X21653Y-18300D01*
X21666Y-18332D01*
X21825Y-18491D01*
X22032Y-18577D01*
X22214Y-18577D01*
X22214Y-19993D01*
M02*
