M48
;DRILL file {PCBnew (2011-01-25 BZR 2758)-stable} date 2011-04-14T22:22:00 CEST
;FORMAT={-:-/ absolute / metric / decimal}
FMAT,2
METRIC,TZ
T1C0.300
T2C0.500
T3C0.800
T4C0.813
T5C1.016
T6C1.199
T7C2.301
T8C3.000
%
G90
G05
M71
T1
X31.499Y-20.150
X33.200Y-21.849
T2
X9.749Y-40.498
X14.249Y-39.248
X14.249Y-42.748
X19.050Y-26.749
X19.050Y-30.749
X19.248Y-18.748
X19.500Y-20.498
X19.500Y-22.499
X20.998Y-42.248
X25.250Y-16.248
X25.751Y-23.249
X27.501Y-43.249
X29.500Y-53.500
X30.249Y-26.248
X30.998Y-22.748
X34.249Y-23.599
X34.249Y-24.900
X34.249Y-26.248
X34.999Y-53.500
X36.500Y-40.498
X39.251Y-16.248
X45.250Y-21.250
X45.499Y-30.749
X46.248Y-25.999
T4
X13.950Y-21.979
X13.950Y-24.519
X15.949Y-21.979
X15.949Y-24.519
T5
X51.478Y-18.458
X51.478Y-20.998
X51.478Y-23.538
X51.478Y-27.998
X54.018Y-18.458
X54.018Y-20.998
X54.018Y-23.538
X54.018Y-27.998
T6
X48.748Y-40.749
X53.749Y-35.748
X53.749Y-45.750
X56.248Y-35.748
X56.248Y-45.750
T7
X11.250Y-17.249
X11.250Y-29.248
T8
X10.749Y-10.249
X10.749Y-53.249
X53.749Y-10.249
X53.749Y-53.249
T3
X48.397Y-35.748G85X49.098Y-35.748
G05
X48.397Y-45.750G85X49.098Y-45.750
G05
X53.749Y-41.100G85X53.749Y-40.399
G05
T0
M30
