G04 (created by PCBNEW-RS274X (2011-01-25 BZR 2758)-stable) date 2011-04-14T22:21:49 CEST*
G01*
G70*
G90*
%MOIN*%
G04 Gerber Fmt 3.4, Leading zero omitted, Abs format*
%FSLAX34Y34*%
G04 APERTURE LIST*
%ADD10C,0.006000*%
%ADD11C,0.015000*%
%ADD12R,0.122400X0.083000*%
%ADD13R,0.083000X0.122400*%
%ADD14R,0.083000X0.138100*%
%ADD15R,0.080000X0.080000*%
%ADD16C,0.080000*%
%ADD17R,0.236500X0.098700*%
%ADD18R,0.055000X0.075000*%
%ADD19R,0.075000X0.055000*%
%ADD20R,0.100000X0.080000*%
%ADD21R,0.040000X0.065000*%
%ADD22R,0.075000X0.037000*%
%ADD23R,0.070000X0.036000*%
%ADD24C,0.126300*%
%ADD25C,0.083000*%
%ADD26O,0.083000X0.138100*%
%ADD27O,0.138100X0.083000*%
%ADD28R,0.080000X0.100000*%
%ADD29C,0.256200*%
%ADD30R,0.075100X0.035700*%
G04 APERTURE END LIST*
G54D10*
G54D11*
X04232Y-02657D02*
X21161Y-02657D01*
X02854Y-20964D02*
X02854Y-04035D01*
X21063Y-22342D02*
X04232Y-22342D01*
X21063Y-22341D02*
X21182Y-22344D01*
X21302Y-22337D01*
X21422Y-22320D01*
X21539Y-22292D01*
X21653Y-22254D01*
X21764Y-22206D01*
X21870Y-22148D01*
X21970Y-22082D01*
X22065Y-22007D01*
X22152Y-21925D01*
X22232Y-21834D01*
X22304Y-21738D01*
X22367Y-21635D01*
X22421Y-21527D01*
X22465Y-21415D01*
X22500Y-21300D01*
X22524Y-21182D01*
X22538Y-21062D01*
X22539Y-04035D02*
X22539Y-21063D01*
X22539Y-04035D02*
X22533Y-03915D01*
X22518Y-03796D01*
X22492Y-03679D01*
X22455Y-03564D01*
X22409Y-03453D01*
X22354Y-03347D01*
X22289Y-03245D01*
X22216Y-03150D01*
X22135Y-03061D01*
X22046Y-02980D01*
X21951Y-02907D01*
X21850Y-02842D01*
X21743Y-02787D01*
X21632Y-02741D01*
X21517Y-02704D01*
X21400Y-02678D01*
X21281Y-02663D01*
X21161Y-02657D01*
X04232Y-02657D02*
X04112Y-02663D01*
X03993Y-02678D01*
X03876Y-02704D01*
X03761Y-02741D01*
X03650Y-02787D01*
X03544Y-02842D01*
X03442Y-02907D01*
X03347Y-02980D01*
X03258Y-03061D01*
X03177Y-03150D01*
X03104Y-03245D01*
X03039Y-03347D01*
X02984Y-03453D01*
X02938Y-03564D01*
X02901Y-03679D01*
X02875Y-03796D01*
X02860Y-03915D01*
X02854Y-04035D01*
X02854Y-20964D02*
X02860Y-21084D01*
X02875Y-21203D01*
X02901Y-21320D01*
X02938Y-21435D01*
X02984Y-21546D01*
X03039Y-21652D01*
X03104Y-21754D01*
X03177Y-21849D01*
X03258Y-21938D01*
X03347Y-22019D01*
X03442Y-22092D01*
X03544Y-22157D01*
X03650Y-22212D01*
X03761Y-22258D01*
X03876Y-22295D01*
X03993Y-22321D01*
X04112Y-22336D01*
X04232Y-22342D01*
G54D12*
X15728Y-10236D03*
X17146Y-10236D03*
G54D13*
X08267Y-19114D03*
X08267Y-17696D03*
G54D14*
X08267Y-13799D03*
X08267Y-15531D03*
G54D15*
X20267Y-11023D03*
G54D16*
X21267Y-11023D03*
G54D15*
X20267Y-07267D03*
G54D16*
X21267Y-07267D03*
X20267Y-08267D03*
X21267Y-08267D03*
X20267Y-09267D03*
X21267Y-09267D03*
G54D17*
X10846Y-04625D03*
X14546Y-04625D03*
G54D18*
X15828Y-17618D03*
X15078Y-17618D03*
X15828Y-16437D03*
X15078Y-16437D03*
G54D19*
X13484Y-14290D03*
X13484Y-15040D03*
G54D18*
X12321Y-06397D03*
X13071Y-06397D03*
G54D19*
X11909Y-14290D03*
X11909Y-15040D03*
G54D18*
X13072Y-12106D03*
X12322Y-12106D03*
G54D19*
X03838Y-12912D03*
X03838Y-13662D03*
X03838Y-14684D03*
X03838Y-15434D03*
X06299Y-13662D03*
X06299Y-12912D03*
G54D18*
X14093Y-06397D03*
X14843Y-06397D03*
X10550Y-06397D03*
X11300Y-06397D03*
X05530Y-18503D03*
X06280Y-18503D03*
G54D19*
X05019Y-12912D03*
X05019Y-13662D03*
G54D20*
X14370Y-12046D03*
X14370Y-13346D03*
X11023Y-12046D03*
X11023Y-13346D03*
G54D21*
X04860Y-14891D03*
X05360Y-14891D03*
X05860Y-14891D03*
X06360Y-14891D03*
X06360Y-17391D03*
X05860Y-17391D03*
X05360Y-17391D03*
X04860Y-17391D03*
G54D22*
X11597Y-16267D03*
X11597Y-16517D03*
X11597Y-16777D03*
X11597Y-17027D03*
X11597Y-17287D03*
X11597Y-17542D03*
X11597Y-17797D03*
X13797Y-17797D03*
X13797Y-17542D03*
X13797Y-17287D03*
X13797Y-17027D03*
X13797Y-16772D03*
X13797Y-16517D03*
X13797Y-16262D03*
G54D23*
X11294Y-07503D03*
X11294Y-07753D03*
X11294Y-08013D03*
X11294Y-08273D03*
X11294Y-08523D03*
X11294Y-08783D03*
X11294Y-09043D03*
X11294Y-09293D03*
X11294Y-09553D03*
X11294Y-09803D03*
X11294Y-10063D03*
X11294Y-10323D03*
X11294Y-10573D03*
X11294Y-10833D03*
X14094Y-10833D03*
X14094Y-10573D03*
X14094Y-10333D03*
X14094Y-10063D03*
X14094Y-09803D03*
X14094Y-09553D03*
X14094Y-09293D03*
X14094Y-09043D03*
X14094Y-08783D03*
X14094Y-08523D03*
X14094Y-08273D03*
X14094Y-08013D03*
X14094Y-07753D03*
X14094Y-07503D03*
G54D16*
X06279Y-09653D03*
X06279Y-08653D03*
X05492Y-08653D03*
X05492Y-09653D03*
G54D24*
X04429Y-11515D03*
X04429Y-06791D03*
G54D25*
X22145Y-18012D03*
X21161Y-18012D03*
X22145Y-14074D03*
X21161Y-14074D03*
X19192Y-16043D03*
G54D26*
X21161Y-16043D03*
G54D27*
X19192Y-18012D03*
X19192Y-14074D03*
G54D28*
X09606Y-07381D03*
X08306Y-07381D03*
X08306Y-10531D03*
X09606Y-10531D03*
X08306Y-12106D03*
X09606Y-12106D03*
X17087Y-08366D03*
X15787Y-08366D03*
X15787Y-12106D03*
X17087Y-12106D03*
G54D20*
X10138Y-16377D03*
X10138Y-17677D03*
X11614Y-19035D03*
X11614Y-20335D03*
X13779Y-19035D03*
X13779Y-20335D03*
G54D29*
X04232Y-04035D03*
X21161Y-04035D03*
X04232Y-20964D03*
X21161Y-20964D03*
G54D30*
X08523Y-08956D03*
X08523Y-09212D03*
X08523Y-08700D03*
X09389Y-09212D03*
X09389Y-08956D03*
X09389Y-08700D03*
M02*
